<svg viewBox="0 0 16 16" width="16px" height="16px"><path fill="#9c9997" d="m14.814889,0.000022l-13.633851,0c-0.651778,0 -1.181037,0.516815 -1.181037,1.152815l0,13.69274c0,0.637111 0.529259,1.154444 1.181037,1.154444l13.633851,0c0.652518,0 1.185111,-0.517333 1.185111,-1.154518l0,-13.692666c0,-0.636 -0.532593,-1.152815 -1.185111,-1.152815zm-10.069629,13.634296l-2.374148,0l0,-7.635481l2.374148,0l0,7.635481zm-1.186963,-8.679407c-0.760741,0 -1.375556,-0.616593 -1.375556,-1.376444c0,-0.758963 0.614889,-1.375556 1.375556,-1.375556c0.758667,0 1.375259,0.616593 1.375259,1.375556c0.000074,0.759778 -0.616593,1.376444 -1.375259,1.376444zm10.074963,8.679407l-2.37037,0l0,-3.712963c0,-0.886 -0.017333,-2.024889 -1.233481,-2.024889c-1.234963,0 -1.423333,0.964667 -1.423333,1.960667l0,3.777185l-2.372444,0l0,-7.635481l2.276593,0l0,1.042815l0.032444,0c0.316815,-0.600148 1.091111,-1.233185 2.24563,-1.233185c2.401333,0 2.844889,1.581037 2.844889,3.637704l0,4.188148l0.000074,0z"/></svg>